<svg width="80" height="80" viewBox="0 0 80 80" fill="none" xmlns="http://www.w3.org/2000/svg">
<path fill-rule="evenodd" clip-rule="evenodd" d="M40 0C47.9112 0 55.6448 2.34596 62.2228 6.74121C68.8008 11.1365 73.9277 17.3836 76.9552 24.6927C79.9827 32.0017 80.7748 40.0444 79.2314 47.8036C77.688 55.5628 73.8784 62.6902 68.2843 68.2843C62.6902 73.8784 55.5628 77.688 47.8036 79.2314C40.0444 80.7748 32.0017 79.9827 24.6927 76.9552C17.3836 73.9277 11.1365 68.8008 6.74121 62.2228C2.34596 55.6448 0 47.9112 0 40C0 29.3913 4.21427 19.2172 11.7157 11.7157C19.2172 4.21427 29.3913 0 40 0ZM48.5547 23.9583C49.6875 22.806 50.3971 21.888 51.8099 23.3073L56.3672 27.9492C57.8581 29.4206 57.7799 30.2799 56.3672 31.6536L47.7409 40.2539L56.0417 48.5547C57.194 49.6875 58.112 50.3971 56.6927 51.8099L52.0508 56.3672C50.5794 57.8581 49.72 57.7799 48.3529 56.3672L40 47.9948L31.6601 56.3346C30.293 57.7344 29.4336 57.8125 27.9622 56.3346L23.3203 51.7773C21.888 50.3776 22.806 49.668 23.9713 48.5221L32.2591 40.2539L23.6654 31.6667C22.2656 30.293 22.1875 29.4336 23.6654 27.9622L28.2226 23.3203C29.6224 21.888 30.332 22.806 31.4779 23.9713L40 32.513L48.5547 23.9583Z" fill="#BDBDBD"/>
</svg>
