<svg width="80" height="80" viewBox="0 0 80 80" fill="none" xmlns="http://www.w3.org/2000/svg">
<circle cx="40" cy="40" r="40" fill="#FEECEA"/>
<path d="M42 46C42.5667 46 43.042 45.808 43.426 45.424C43.81 45.04 44.0013 44.5653 44 44C44 43.4333 43.808 42.958 43.424 42.574C43.04 42.19 42.5653 41.9987 42 42C41.4333 42 40.958 42.192 40.574 42.576C40.19 42.96 39.9987 43.4347 40 44C40 44.5667 40.192 45.042 40.576 45.426C40.96 45.81 41.4347 46.0013 42 46ZM40 38H44V26H40V38ZM22 60V24C22 22.9 22.392 21.958 23.176 21.174C23.96 20.39 24.9013 19.9987 26 20H58C59.1 20 60.042 20.392 60.826 21.176C61.61 21.96 62.0013 22.9013 62 24V48C62 49.1 61.608 50.042 60.824 50.826C60.04 51.61 59.0987 52.0013 58 52H30L22 60Z" fill="#F54135"/>
</svg>
