<svg width="80" height="80" viewBox="0 0 80 80" fill="none" xmlns="http://www.w3.org/2000/svg">
<circle cx="40" cy="40" r="40" fill="#E3D2FE"/>
<path d="M20.9509 60C20.4258 60 20 59.606 20 59.1203C20 58.6342 20.4258 58.2406 20.9509 58.2406H25.8187C25.905 53.0151 27.4359 48.2811 29.8679 44.8142C31.3819 42.6558 33.2449 40.9849 35.3299 39.9819C33.2449 38.9788 31.3823 37.308 29.8679 35.1495C27.4415 31.691 25.9118 26.9708 25.8191 21.7594H20.9509C20.4258 21.7594 20 21.3654 20 20.8797C20 20.394 20.4258 20 20.9509 20H59.0488C59.5745 20 60 20.394 60 20.8797C60 21.3654 59.5745 21.7594 59.0488 21.7594H53.9918C53.899 26.9708 52.3694 31.691 49.943 35.1495C48.4286 37.308 46.5656 38.9788 44.481 39.9819C46.5656 40.9853 48.4286 42.6558 49.943 44.8142C52.3749 48.2811 53.9059 53.0147 53.9921 58.2406H59.0485C59.5742 58.2406 59.9997 58.6342 59.9997 59.1203C59.9997 59.606 59.5742 60 59.0485 60H20.9509ZM48.4433 33.8443C50.5605 30.8273 51.9173 26.7118 52.0716 22.1316H27.7393C27.8933 26.7118 29.2507 30.8273 31.3673 33.8443C33.5665 36.9789 36.5864 38.9179 39.9054 38.9179C43.2245 38.9179 46.2447 36.9789 48.4433 33.8443ZM52.0716 57.8325C51.9169 53.2523 50.5601 49.1368 48.4433 46.1197C46.2447 42.9851 43.2248 41.0462 39.9054 41.0462C36.5861 41.0462 33.5662 42.9855 31.3673 46.1197C29.2507 49.1368 27.8936 53.2523 27.7393 57.8325H52.0716Z" fill="#854AA4"/>
</svg>
