<svg width="30" height="30" viewBox="0 0 30 30" fill="none" xmlns="http://www.w3.org/2000/svg">
<path d="M14.9957 1.47625e-05C18.4662 -0.00097727 21.8297 1.20149 24.513 3.40251C27.1963 5.60353 29.0334 8.6669 29.7111 12.0706C30.3889 15.4743 29.8655 19.0077 28.23 22.0687C26.5945 25.1297 23.9482 27.5289 20.742 28.8574C17.5359 30.186 13.9682 30.3616 10.647 29.3545C7.32585 28.3473 4.45666 26.2197 2.5284 23.3342C0.60013 20.4486 -0.267896 16.9837 0.0722359 13.5299C0.412368 10.0761 1.93961 6.84708 4.39371 4.39311C5.78406 2.99813 7.43653 1.89184 9.25604 1.1379C11.0755 0.383958 13.0262 -0.00275394 14.9957 1.47625e-05ZM15.7425 18.5047L12.2037 16.8768C11.8294 17.3122 11.3337 17.626 10.7801 17.7781C10.2264 17.9301 9.64 17.9135 9.09585 17.7304C8.5517 17.5473 8.07457 17.2059 7.72554 16.75C7.3765 16.2942 7.17143 15.7445 7.13657 15.1714C7.10171 14.5984 7.23865 14.0279 7.52986 13.5331C7.82107 13.0383 8.2533 12.6416 8.77125 12.3939C9.28919 12.1461 9.86928 12.0586 10.4373 12.1424C11.0053 12.2262 11.5353 12.4777 11.9596 12.8645L15.7181 11.2952C15.6957 11.1457 15.6843 10.9948 15.684 10.8436C15.6839 10.0821 15.9853 9.35159 16.5221 8.81153C17.059 8.27147 17.7878 7.9658 18.5492 7.96129C19.0133 7.95966 19.471 8.07004 19.8833 8.28304C20.2956 8.49605 20.6505 8.80539 20.9178 9.18481C21.185 9.56423 21.3568 10.0025 21.4185 10.4625C21.4802 10.9225 21.43 11.3906 21.2722 11.827C21.1144 12.2635 20.8536 12.6554 20.512 12.9695C20.1704 13.2837 19.758 13.5108 19.3099 13.6315C18.8618 13.7523 18.3911 13.7631 17.9379 13.6632C17.4847 13.5632 17.0623 13.3553 16.7066 13.0573L12.8773 14.6437C12.8903 14.7543 12.8976 14.8641 12.8992 14.9732L16.8799 16.8158C17.406 16.4462 18.041 16.264 18.683 16.2983C19.3251 16.3327 19.937 16.5816 20.4207 17.0052C20.9044 17.4289 21.2318 18.0026 21.3505 18.6346C21.4692 19.2665 21.3723 19.92 21.0753 20.4902C20.7783 21.0605 20.2984 21.5145 19.7126 21.7795C19.1267 22.0445 18.4689 22.1051 17.8445 21.9516C17.2201 21.7981 16.6654 21.4394 16.2692 20.933C15.873 20.4265 15.6583 19.8018 15.6596 19.1588C15.6603 18.9386 15.6857 18.7193 15.7352 18.5047H15.7425ZM23.8917 6.10154C21.8331 4.04454 19.125 2.76497 16.2287 2.48084C13.3324 2.19672 10.4272 2.92562 8.00812 4.54336C5.58902 6.1611 3.80568 8.56758 2.96196 11.3528C2.11824 14.138 2.26634 17.1295 3.38102 19.8178C4.49571 22.506 6.50802 24.7246 9.07507 26.0955C11.6421 27.4664 14.6051 27.9048 17.4592 27.336C20.3132 26.7672 22.8817 25.2264 24.7271 22.9761C26.5725 20.7258 27.5805 17.9053 27.5795 14.9951C27.581 13.3429 27.256 11.7066 26.6231 10.1803C25.9903 8.65405 25.062 7.2679 23.8917 6.10154Z" fill="#FF914C"/>
</svg>
