<svg width="80" height="80" viewBox="0 0 80 80" fill="none" xmlns="http://www.w3.org/2000/svg">
<circle cx="40" cy="40" r="40" fill="#FFEAD7"/>
<path d="M28.6275 20H32.8685V23.6296H28.6275C27.5707 23.6288 26.5568 24.0468 25.8088 24.7917C25.0623 25.5381 24.6434 26.5497 24.6441 27.6042V32.7995H21V27.6107C21.0013 26.6131 21.1996 25.6256 21.5836 24.7045C21.9676 23.7835 22.5298 22.947 23.238 22.2428C23.9439 21.5331 24.7835 20.9696 25.7084 20.5847C26.6333 20.1998 27.6253 20.0011 28.6275 20ZM22.0603 37.8743H59.9397C60.221 37.8778 60.4897 37.9912 60.688 38.1903C60.8863 38.3893 60.9983 38.6581 61 38.9388V41.0612C61.0009 41.3436 60.89 41.6148 60.6914 41.816C60.4928 42.0172 60.2227 42.132 59.9397 42.1354H22.0603C21.7771 42.1328 21.5064 42.0183 21.3077 41.817C21.1089 41.6156 20.9983 41.3438 21 41.0612V38.9388C21 38.6576 21.1115 38.3878 21.3102 38.1884C21.5088 37.989 21.7785 37.8761 22.0603 37.8743ZM50.5473 20H53.3726C54.3724 20.0005 55.3624 20.1981 56.2855 20.5813C57.2087 20.9645 58.047 21.5258 58.7522 22.2331C59.4622 22.9381 60.0257 23.776 60.4103 24.6989C60.7949 25.6217 60.9931 26.6112 60.9935 27.6107V32.7995H57.3624V27.6107C57.3614 27.0884 57.2572 26.5714 57.0557 26.0893C56.8541 25.6073 56.5593 25.1696 56.188 24.8014C55.818 24.4319 55.3786 24.1388 54.8949 23.9388C54.4112 23.7388 53.8928 23.636 53.3693 23.6361H50.5473V20ZM60.9869 46.6439V52.3893C60.9801 54.4057 60.1743 56.3375 58.7453 57.7633C57.3164 59.1891 55.3803 59.9931 53.3595 60H50.5473V56.3704H53.3726C54.4292 56.3653 55.441 55.9442 56.1882 55.1987C56.9353 54.4532 57.3573 53.4436 57.3624 52.3893V46.6439H60.9869ZM32.8555 59.9902H28.6144C26.5968 59.9877 24.6629 59.1856 23.238 57.7604L23.1336 57.6465C21.7672 56.2357 21.0024 54.3512 21 52.3893V46.6439H24.6376V52.3893C24.6382 53.4076 25.0292 54.3871 25.7305 55.127L25.812 55.1986C26.181 55.569 26.6196 55.8632 27.1028 56.0643C27.5859 56.2654 28.104 56.3694 28.6275 56.3704H32.8685V60L32.8555 59.9902Z" fill="#FF9201"/>
</svg>
