<svg width="80" height="80" viewBox="0 0 80 80" fill="none" xmlns="http://www.w3.org/2000/svg">
<circle cx="40" cy="40" r="40" fill="#EDF7EE"/>
<path d="M50.9999 60C53.652 60 56.1956 58.9464 58.0709 57.0711C59.9463 55.1957 60.9999 52.6522 60.9999 50C60.9999 47.3478 59.9463 44.8043 58.0709 42.9289C56.1956 41.0536 53.652 40 50.9999 40C48.3477 40 45.8042 41.0536 43.9288 42.9289C42.0534 44.8043 40.9999 47.3478 40.9999 50C40.9999 52.6522 42.0534 55.1957 43.9288 57.0711C45.8042 58.9464 48.3477 60 50.9999 60ZM55.797 47.1629L51.9827 53.5229C51.8151 53.8023 51.586 54.0398 51.3128 54.2173C51.0395 54.3949 50.7294 54.5078 50.406 54.5475C50.0826 54.5871 49.7544 54.5525 49.4464 54.4463C49.1384 54.34 48.8586 54.1649 48.6284 53.9343L46.417 51.7257C46.1488 51.4575 45.9981 51.0936 45.9981 50.7143C45.9981 50.3349 46.1488 49.9711 46.417 49.7029C46.6853 49.4346 47.0491 49.2839 47.4284 49.2839C47.8078 49.2839 48.1716 49.4346 48.4399 49.7029L50.0027 51.2686L53.3456 45.6943C53.442 45.5333 53.5692 45.3929 53.7199 45.2811C53.8706 45.1693 54.0418 45.0883 54.2238 45.0426C54.4058 44.997 54.595 44.9877 54.7806 45.0152C54.9662 45.0427 55.1446 45.1064 55.3056 45.2029C55.4665 45.2993 55.6069 45.4265 55.7187 45.5772C55.8306 45.7278 55.9116 45.8991 55.9572 46.0811C56.0029 46.2631 56.0122 46.4523 55.9847 46.6379C55.9572 46.8235 55.8934 47.0019 55.797 47.1629ZM46.7141 28.5714C46.7141 30.8447 45.8111 33.0249 44.2036 34.6323C42.5962 36.2398 40.416 37.1429 38.1427 37.1429C35.8694 37.1429 33.6893 36.2398 32.0818 34.6323C30.4743 33.0249 29.5713 30.8447 29.5713 28.5714C29.5713 26.2981 30.4743 24.118 32.0818 22.5105C33.6893 20.9031 35.8694 20 38.1427 20C40.416 20 42.5962 20.9031 44.2036 22.5105C45.8111 24.118 46.7141 26.2981 46.7141 28.5714Z" fill="#67BA68"/>
<path d="M21 51.4286C21 54.2857 23.8571 54.2857 23.8571 54.2857H38.8743C38.3886 52.9091 38.1412 51.4598 38.1429 50C38.141 48.1624 38.5339 46.3459 39.295 44.6734C40.0561 43.0009 41.1676 41.5114 42.5543 40.3057C41.22 40.1086 39.7543 40 38.1429 40C23.8571 40 21 48.5714 21 51.4286Z" fill="#67BA68"/>
</svg>
