<svg width="80" height="80" viewBox="0 0 80 80" fill="none" xmlns="http://www.w3.org/2000/svg">
<circle cx="40" cy="40" r="40" fill="#D7EAF9"/>
<path fill-rule="evenodd" clip-rule="evenodd" d="M39.4581 55.3352C38.7123 58.8782 37.8085 62.0615 35.0487 65C40.3248 63.3795 44.3988 60.1038 47.3882 55.3352H39.4581ZM48.2893 25H31.7102C28.0195 25 25 28.626 25 33.0574V47.2775C25 51.7092 28.0195 55.3352 31.7102 55.3352H48.2893C51.9803 55.3352 55 51.7092 55 47.2775V33.0574C55 28.626 51.9803 25 48.2893 25ZM32.1084 36.4314C33.6263 36.4314 34.8576 37.9099 34.8576 39.7325C34.8576 41.5551 33.6263 43.0337 32.1084 43.0337C30.5903 43.0337 29.3592 41.5551 29.3592 39.7325C29.3592 37.9096 30.5903 36.4314 32.1084 36.4314ZM47.8916 36.4314C49.4097 36.4314 50.6408 37.9099 50.6408 39.7325C50.6408 41.5551 49.4097 43.0337 47.8916 43.0337C46.3735 43.0337 45.1424 41.5551 45.1424 39.7325C45.1427 37.9096 46.3737 36.4314 47.8916 36.4314ZM40 36.4314C41.5179 36.4314 42.7495 37.9099 42.7495 39.7325C42.7495 41.5551 41.5179 43.0337 40 43.0337C38.4819 43.0337 37.2508 41.5551 37.2508 39.7325C37.2508 37.9096 38.4819 36.4314 40 36.4314Z" fill="#1561B9"/>
</svg>
